 <svg version="1.0" xmlns="http://www.w3.org/2000/svg"  width="252.000000pt" height="48.000000pt" viewBox="0 0 252.000000 48.000000"  preserveAspectRatio="xMidYMid meet">  <g transform="translate(0.000000,48.000000) scale(0.100000,-0.100000)" fill="#ed5c2a" stroke="none"> <path d="M59 451 c34 -47 64 -61 135 -61 95 0 97 -3 95 -165 -3 -147 2 -163 61 -205 l31 -22 -3 221 c-3 212 -4 221 -25 243 -27 26 -43 16 -23 -15 21 -31 28 -351 8 -345 -10 4 -14 37 -16 136 l-3 131 -30 25 c-25 22 -41 26 -89 26 -52 0 -64 4 -93 30 -19 17 -42 30 -52 30 -14 0 -14 -3 4 -29z"/> <path d="M390 465 c7 -8 16 -30 19 -48 6 -27 12 -32 39 -35 27 -3 32 0 32 18 0 11 -6 34 -14 49 -12 22 -22 28 -51 29 -32 1 -35 -1 -25 -13z"/> <path d="M500 461 c5 -11 10 -31 10 -45 0 -38 26 -33 74 16 34 35 38 43 23 46 -10 2 -28 -4 -39 -14 -19 -18 -20 -18 -33 -1 -6 9 -20 17 -29 17 -13 0 -15 -4 -6 -19z"/> <path d="M1872 378 c-18 -18 -15 -36 9 -49 29 -15 59 12 43 39 -14 22 -36 26 -52 10z"/> <path d="M2329 348 c-21 -7 -25 -13 -21 -38 4 -25 1 -30 -17 -30 -14 0 -21 -6 -21 -20 0 -13 7 -20 20 -20 18 0 20 -7 20 -85 0 -72 3 -88 20 -105 19 -19 79 -28 92 -14 14 13 -6 44 -27 44 -29 0 -35 16 -35 96 l0 64 35 0 c28 0 35 4 35 20 0 16 -7 20 -36 20 -34 0 -35 1 -33 34 4 42 1 46 -32 34z"/> <path d="M512 265 c-24 -30 -32 -31 -32 -5 0 15 -7 20 -25 20 l-25 0 0 -125 0 -125 30 0 30 0 0 78 c0 88 16 122 56 122 20 0 24 5 24 30 0 38 -30 41 -58 5z"/> <path d="M640 281 c-18 -5 -24 -13 -22 -27 5 -26 7 -27 30 -15 31 16 67 13 85 -7 27 -30 20 -42 -23 -42 -79 0 -133 -56 -110 -115 17 -44 84 -60 127 -30 19 13 22 13 27 0 3 -8 16 -15 29 -15 24 0 24 0 20 98 -2 53 -9 107 -15 118 -19 39 -82 54 -148 35z m110 -148 c0 -51 -60 -84 -90 -48 -26 31 12 74 68 75 17 0 22 -6 22 -27z"/> <path d="M846 282 c-3 -2 -1 -12 5 -21 5 -9 27 -63 48 -121 35 -98 40 -105 67 -108 28 -3 30 0 72 110 61 159 59 147 21 139 -30 -6 -34 -11 -56 -81 -12 -41 -23 -83 -23 -92 0 -10 -4 -18 -10 -18 -5 0 -10 7 -10 14 0 8 -11 51 -25 94 -23 74 -27 80 -55 84 -17 3 -32 3 -34 0z"/> <path d="M1183 275 c-79 -34 -94 -153 -28 -215 37 -35 110 -39 155 -8 74 50 74 166 1 215 -38 26 -81 29 -128 8z m87 -35 c10 -5 24 -26 30 -45 14 -43 -1 -100 -32 -116 -74 -40 -130 91 -65 151 23 22 40 25 67 10z"/> <path d="M1507 270 c-30 -24 -37 -25 -37 -5 0 9 -9 15 -24 15 -23 0 -24 0 -25 -126 l-1 -125 31 3 32 3 -2 78 c-3 90 13 127 54 127 35 0 45 -27 45 -124 l0 -86 30 0 30 0 0 93 c0 99 7 117 47 117 39 0 55 -39 52 -127 l-2 -78 26 0 c15 0 27 3 27 8 0 4 0 50 0 102 0 88 -2 98 -25 120 -31 32 -75 32 -111 2 l-27 -23 -23 23 c-28 28 -63 29 -97 3z"/> <path d="M2093 278 c-13 -6 -23 -15 -23 -20 0 -4 -4 -8 -10 -8 -5 0 -10 7 -10 15 0 10 -10 15 -27 15 l-28 0 3 -125 3 -125 30 0 29 0 0 89 c0 98 11 121 55 121 42 0 58 -38 54 -127 l-4 -78 30 0 c29 0 30 2 33 50 6 85 -7 155 -33 181 -26 26 -65 30 -102 12z"/> <path d="M1867 158 l2 -123 30 -3 31 -3 0 125 0 126 -32 0 -33 0 2 -122z"/> </g> </svg> 

 